<svg width="19.999756" height="16.000000" viewBox="0 0 19.9998 16" fill="none" xmlns="http://www.w3.org/2000/svg" xmlns:xlink="http://www.w3.org/1999/xlink">
	<desc>
			Created with Pixso.
	</desc>
	<defs/>
	<path id="Vector" d="M6.02 3.36C5.72 2.35 4.91 2.46 4.35 2.93C2.98 4.2 1.2 6.85 2.34 10.68C3.29 13.92 7.28 16 7.28 16L2.64 16C2.64 16 0.24 13.31 0.03 10.15C-0.25 6.16 1.35 3.64 3.21 2C4.95 0.45 6.61 0 6.61 0L10 11.1L13.38 0C13.38 0 15.04 0.45 16.78 2C18.64 3.64 20.24 6.16 19.96 10.15C19.75 13.31 17.35 16 17.35 16L12.71 16C12.71 16 16.69 13.92 17.65 10.68C18.79 6.85 17.01 4.2 15.64 2.93C15.08 2.46 14.27 2.35 13.97 3.36C12.94 6.6 10 15.89 10 15.89C10 15.89 7.05 6.6 6.02 3.36L6.02 3.36Z" fill="#FFFFFF" fill-opacity="1.000000" fill-rule="nonzero"/>
</svg>
