<svg width="14.000000" height="18.000000" viewBox="0 0 14 18" fill="none" xmlns="http://www.w3.org/2000/svg" xmlns:xlink="http://www.w3.org/1999/xlink">
	<desc>
			Created with Pixso.
	</desc>
	<defs/>
	<path id="Vector" d="M7 0C5.14 0 3.36 0.74 2.05 2.07C0.74 3.39 0 5.19 0 7.07C-0.01 8.6 0.49 10.09 1.41 11.31C1.41 11.31 1.6 11.56 1.63 11.6L7 18L12.37 11.6C12.39 11.56 12.58 11.31 12.58 11.31L12.59 11.31C13.5 10.09 14 8.6 14 7.07C13.99 5.19 13.25 3.39 11.94 2.07C10.63 0.74 8.85 0 7 0ZM7 9.64C6.49 9.64 6 9.49 5.58 9.2C5.16 8.92 4.84 8.52 4.64 8.05C4.45 7.58 4.4 7.06 4.5 6.56C4.6 6.07 4.84 5.61 5.2 5.25C5.55 4.89 6 4.64 6.5 4.54C6.99 4.45 7.5 4.5 7.97 4.69C8.43 4.89 8.83 5.21 9.11 5.64C9.39 6.06 9.54 6.56 9.54 7.07C9.54 7.75 9.27 8.4 8.79 8.88C8.32 9.37 7.67 9.64 7 9.64Z" fill="#FFFFFF" fill-opacity="1.000000" fill-rule="nonzero"/>
</svg>
