<svg width="20.000000" height="20.000000" viewBox="0 0 20 20" fill="none" xmlns="http://www.w3.org/2000/svg" xmlns:xlink="http://www.w3.org/1999/xlink">
	<desc>
			Created with Pixso.
	</desc>
	<defs/>
	<path id="Vector" d="M5 0.62C5 0.45 4.93 0.3 4.81 0.18C4.69 0.06 4.54 0 4.37 0C4.2 0 4.05 0.06 3.93 0.18C3.81 0.3 3.75 0.45 3.75 0.62L3.75 1.25L2.5 1.25C1.83 1.25 1.2 1.51 0.73 1.98C0.26 2.45 0 3.08 0 3.75L0 5L20 5L20 3.75C20 3.08 19.73 2.45 19.26 1.98C18.79 1.51 18.16 1.25 17.5 1.25L16.25 1.25L16.25 0.62C16.25 0.45 16.18 0.3 16.06 0.18C15.94 0.06 15.79 0 15.62 0C15.45 0 15.3 0.06 15.18 0.18C15.06 0.3 15 0.45 15 0.62L15 1.25L5 1.25L5 0.62ZM20 17.5L20 6.25L0 6.25L0 17.5C0 18.16 0.26 18.79 0.73 19.26C1.2 19.73 1.83 20 2.5 20L17.5 20C18.16 20 18.79 19.73 19.26 19.26C19.73 18.79 20 18.16 20 17.5ZM11.87 8.75L13.12 8.75C13.29 8.75 13.44 8.81 13.56 8.93C13.68 9.05 13.75 9.2 13.75 9.37L13.75 10.62C13.75 10.79 13.68 10.94 13.56 11.06C13.44 11.18 13.29 11.25 13.12 11.25L11.87 11.25C11.7 11.25 11.55 11.18 11.43 11.06C11.31 10.94 11.25 10.79 11.25 10.62L11.25 9.37C11.25 9.2 11.31 9.05 11.43 8.93C11.55 8.81 11.7 8.75 11.87 8.75ZM15.62 8.75L16.87 8.75C17.04 8.75 17.19 8.81 17.31 8.93C17.43 9.05 17.5 9.2 17.5 9.37L17.5 10.62C17.5 10.79 17.43 10.94 17.31 11.06C17.19 11.18 17.04 11.25 16.87 11.25L15.62 11.25C15.45 11.25 15.3 11.18 15.18 11.06C15.06 10.94 15 10.79 15 10.62L15 9.37C15 9.2 15.06 9.05 15.18 8.93C15.3 8.81 15.45 8.75 15.62 8.75ZM2.5 13.12C2.5 12.95 2.56 12.8 2.68 12.68C2.8 12.56 2.95 12.5 3.12 12.5L4.37 12.5C4.54 12.5 4.69 12.56 4.81 12.68C4.93 12.8 5 12.95 5 13.12L5 14.37C5 14.54 4.93 14.69 4.81 14.81C4.69 14.93 4.54 15 4.37 15L3.12 15C2.95 15 2.8 14.93 2.68 14.81C2.56 14.69 2.5 14.54 2.5 14.37L2.5 13.12ZM6.87 12.5L8.12 12.5C8.29 12.5 8.44 12.56 8.56 12.68C8.68 12.8 8.75 12.95 8.75 13.12L8.75 14.37C8.75 14.54 8.68 14.69 8.56 14.81C8.44 14.93 8.29 15 8.12 15L6.87 15C6.7 15 6.55 14.93 6.43 14.81C6.31 14.69 6.25 14.54 6.25 14.37L6.25 13.12C6.25 12.95 6.31 12.8 6.43 12.68C6.55 12.56 6.7 12.5 6.87 12.5Z" fill="#FFFFFF" fill-opacity="1.000000" fill-rule="nonzero"/>
</svg>
